<svg width="21.000000" height="17.995758" viewBox="0 0 21 17.9958" fill="none" xmlns="http://www.w3.org/2000/svg" xmlns:xlink="http://www.w3.org/1999/xlink">
	<desc>
			Created with Pixso.
	</desc>
	<defs/>
	<path id="Vector" d="M15.1875 0C13.2516 0 11.5565 0.832504 10.5 2.23969C9.44348 0.832504 7.74841 0 5.8125 0C4.27148 0.0017395 2.79407 0.614685 1.70435 1.70436C0.614624 2.79404 0.00170898 4.27147 0 5.8125C0 12.375 9.73035 17.6869 10.1447 17.9062C10.2539 17.965 10.376 17.9958 10.5 17.9958C10.624 17.9958 10.7461 17.965 10.8553 17.9062C11.2697 17.6869 21 12.375 21 5.8125C20.9983 4.27147 20.3854 2.79404 19.2957 1.70436C18.2059 0.614685 16.7285 0.0017395 15.1875 0ZM10.5 16.3875C8.78809 15.39 1.5 10.8459 1.5 5.8125C1.50146 4.6692 1.9563 3.57318 2.76477 2.76474C3.57312 1.95631 4.66919 1.5015 5.8125 1.5C7.63599 1.5 9.16687 2.47125 9.80627 4.03125C9.86279 4.16881 9.95886 4.28647 10.0824 4.36926C10.2059 4.45207 10.3513 4.49628 10.5 4.49628C10.6487 4.49628 10.7941 4.45207 10.9176 4.36926C11.0411 4.28647 11.1372 4.16881 11.1937 4.03125C11.8331 2.46844 13.364 1.5 15.1875 1.5C16.3308 1.5015 17.4269 1.95631 18.2352 2.76474C19.0437 3.57318 19.4985 4.6692 19.5 5.8125C19.5 10.8384 12.21 15.3891 10.5 16.3875Z" fill="#FFFFFF" fill-opacity="1.000000" fill-rule="nonzero"/>
</svg>
