<svg width="39.000000" height="39.000000" viewBox="0 0 39 39" fill="none" xmlns="http://www.w3.org/2000/svg" xmlns:xlink="http://www.w3.org/1999/xlink">
	<desc>
			Created with Pixso.
	</desc>
	<defs/>
	<path id="Vector" d="M19.5 0C15.6433 0 11.8732 1.14368 8.66638 3.28638C5.45959 5.42908 2.96033 8.47449 1.48438 12.0377C0.00842285 15.6008 -0.377686 19.5216 0.374756 23.3042C1.12708 27.0869 2.98425 30.5614 5.71143 33.2886C8.4386 36.0157 11.9131 37.8729 15.6958 38.6254C19.4784 39.3777 23.3992 38.9916 26.9623 37.5156C30.5255 36.0398 33.5709 33.5404 35.7136 30.3336C37.8563 27.1268 39 23.3567 39 19.5C38.9945 14.33 36.9384 9.37317 33.2826 5.71741C29.6268 2.06165 24.67 0.00549316 19.5 0ZM19.5 36C16.2366 36 13.0465 35.0323 10.3331 33.2192C7.61963 31.4062 5.50488 28.8292 4.25598 25.8143C3.0072 22.7993 2.68042 19.4817 3.31702 16.281C3.95374 13.0803 5.52515 10.1403 7.83276 7.83276C10.1403 5.52515 13.0803 3.95374 16.281 3.31702C19.4817 2.68042 22.7993 3.0072 25.8143 4.25598C28.8292 5.50488 31.4062 7.61963 33.2192 10.3331C35.0323 13.0465 36 16.2366 36 19.5C35.995 23.8745 34.2551 28.0685 31.1617 31.1617C28.0685 34.255 23.8745 35.995 19.5 36ZM28.0613 18.4387C28.2007 18.578 28.3114 18.7435 28.3868 18.9255C28.4623 19.1077 28.5012 19.3029 28.5012 19.5C28.5012 19.6971 28.4623 19.8923 28.3868 20.0745C28.3114 20.2565 28.2007 20.422 28.0613 20.5613L22.0613 26.5613C21.7798 26.8427 21.3981 27.0009 21 27.0009C20.6019 27.0009 20.2202 26.8427 19.9387 26.5613C19.6573 26.2798 19.4991 25.8981 19.4991 25.5C19.4991 25.1019 19.6573 24.7202 19.9387 24.4387L23.3794 21L12 21C11.6022 21 11.2207 20.8419 10.9393 20.5607C10.6581 20.2793 10.5 19.8978 10.5 19.5C10.5 19.1022 10.6581 18.7207 10.9393 18.4393C11.2207 18.1581 11.6022 18 12 18L23.3794 18L19.9387 14.5613C19.6573 14.2798 19.4991 13.8981 19.4991 13.5C19.4991 13.1019 19.6573 12.7202 19.9387 12.4387C20.2202 12.1572 20.6019 11.9991 21 11.9991C21.3981 11.9991 21.7798 12.1572 22.0613 12.4387L28.0613 18.4387Z" fill="#3E9D26" fill-opacity="1.000000" fill-rule="nonzero"/>
</svg>
