<svg width="19.500000" height="19.500000" viewBox="0 0 19.5 19.5" fill="none" xmlns="http://www.w3.org/2000/svg" xmlns:xlink="http://www.w3.org/1999/xlink">
	<desc>
			Created with Pixso.
	</desc>
	<defs/>
	<path id="Vector" d="M9.75 0C7.82166 0 5.93652 0.571777 4.33325 1.64307C2.72986 2.7146 1.4801 4.2373 0.742188 6.0188C0.00427246 7.80054 -0.188843 9.76074 0.187378 11.6521C0.563599 13.5435 1.49219 15.2808 2.85571 16.6443C4.21924 18.0078 5.95654 18.9365 7.8479 19.3127C9.73914 19.689 11.6996 19.4958 13.4812 18.7578C15.2627 18.0198 16.7855 16.7703 17.8568 15.1667C18.9282 13.5635 19.5 11.6785 19.5 9.75C19.4973 7.16504 18.4691 4.68652 16.6412 2.85864C14.8134 1.03076 12.3351 0.00268555 9.75 0ZM10.5 17.9653L10.5 12L12.75 12C12.949 12 13.1396 11.9209 13.2803 11.7803C13.421 11.6396 13.5 11.449 13.5 11.25C13.5 11.051 13.421 10.8604 13.2803 10.7197C13.1396 10.5791 12.949 10.5 12.75 10.5L10.5 10.5L10.5 8.25C10.5 7.85229 10.6581 7.4707 10.9393 7.18945C11.2207 6.90796 11.6022 6.75 12 6.75L13.5 6.75C13.699 6.75 13.8896 6.6709 14.0303 6.53027C14.171 6.38965 14.25 6.19897 14.25 6C14.25 5.80103 14.171 5.61035 14.0303 5.46973C13.8896 5.3291 13.699 5.25 13.5 5.25L12 5.25C11.2043 5.25 10.4413 5.56616 9.87866 6.12866C9.31604 6.69141 9 7.45435 9 8.25L9 10.5L6.75 10.5C6.55115 10.5 6.36035 10.5791 6.21973 10.7197C6.07898 10.8604 6 11.051 6 11.25C6 11.449 6.07898 11.6396 6.21973 11.7803C6.36035 11.9209 6.55115 12 6.75 12L9 12L9 17.9653C6.88574 17.7722 4.92725 16.7717 3.53198 15.1716C2.13672 13.5713 1.41199 11.4949 1.50854 9.37402C1.6051 7.25317 2.51562 5.25122 4.05066 3.78467C5.58569 2.31787 7.62695 1.49951 9.75 1.49951C11.873 1.49951 13.9144 2.31787 15.4493 3.78467C16.9844 5.25122 17.8949 7.25317 17.9915 9.37402C18.088 11.4949 17.3633 13.5713 15.968 15.1716C14.5728 16.7717 12.6143 17.7722 10.5 17.9653Z" fill="#FFFFFF" fill-opacity="1.000000" fill-rule="nonzero"/>
</svg>
