<svg width="16.500000" height="20.999756" viewBox="0 0 16.5 20.9998" fill="none" xmlns="http://www.w3.org/2000/svg" xmlns:xlink="http://www.w3.org/1999/xlink">
	<desc>
			Created with Pixso.
	</desc>
	<defs/>
	<path id="Vector" d="M8.25 4.5C7.5083 4.5 6.78333 4.71997 6.16663 5.13208C5.54993 5.54395 5.06927 6.12964 4.78546 6.81494C4.50165 7.50024 4.42737 8.25415 4.57208 8.98169C4.71674 9.70898 5.07391 10.3772 5.59833 10.9016C6.1228 11.426 6.79095 11.7832 7.51843 11.928C8.24585 12.0728 8.99982 11.9983 9.68506 11.7146C10.3703 11.4307 10.9559 10.95 11.368 10.3335C11.7801 9.7168 12 8.9917 12 8.25C12 7.25537 11.6049 6.30151 10.9017 5.59839C10.1984 4.89502 9.24457 4.5 8.25 4.5ZM8.25 10.5C7.80499 10.5 7.37 10.3679 6.99994 10.1208C6.62994 9.87354 6.34155 9.52222 6.17126 9.11108C6.00098 8.69995 5.95642 8.24756 6.04321 7.81104C6.13007 7.37451 6.34436 6.97363 6.659 6.65894C6.97369 6.34424 7.37457 6.13013 7.81104 6.04321C8.2475 5.9563 8.69989 6.00098 9.11102 6.17139C9.52216 6.34155 9.8736 6.62988 10.1208 7C10.368 7.36987 10.5 7.80493 10.5 8.25C10.5 8.84668 10.2629 9.41895 9.841 9.84106C9.41901 10.2629 8.84674 10.5 8.25 10.5ZM8.25 0C6.06274 0.00244141 3.96576 0.872559 2.41913 2.41919C0.872498 3.96582 0.00250244 6.06274 0 8.25C0 11.1938 1.36029 14.3137 3.9375 17.2734C5.09552 18.6108 6.39886 19.8152 7.82343 20.864C7.94952 20.9524 8.09979 20.9998 8.25372 20.9998C8.40771 20.9998 8.55798 20.9524 8.68408 20.864C10.106 19.8147 11.4068 18.6104 12.5625 17.2734C15.1359 14.3137 16.5 11.1938 16.5 8.25C16.4975 6.06274 15.6275 3.96582 14.0809 2.41919C12.5342 0.872559 10.4373 0.00244141 8.25 0ZM8.25 19.3125C6.70032 18.0938 1.5 13.6172 1.5 8.25C1.5 6.45972 2.21118 4.74292 3.47705 3.47705C4.74292 2.21118 6.45978 1.5 8.25 1.5C10.0402 1.5 11.7571 2.21118 13.0229 3.47705C14.2888 4.74292 15 6.45972 15 8.25C15 13.6152 9.79968 18.0938 8.25 19.3125Z" fill="#FFFFFF" fill-opacity="1.000000" fill-rule="nonzero"/>
</svg>
