<svg width="20.249390" height="18.000488" viewBox="0 0 20.2494 18.0005" fill="none" xmlns="http://www.w3.org/2000/svg" xmlns:xlink="http://www.w3.org/1999/xlink">
	<desc>
			Created with Pixso.
	</desc>
	<defs/>
	<path id="Vector" d="M20.1921 2.71362C20.1354 2.57642 20.0392 2.45923 19.9159 2.37695C19.7926 2.29443 19.6476 2.25049 19.4993 2.25049L16.6465 2.25049C16.2476 1.57178 15.6799 1.00806 14.9987 0.61377C14.3174 0.219482 13.5458 0.00805664 12.7587 0.000488281C12.1722 -0.00732422 11.5902 0.102295 11.0469 0.322998C10.5035 0.543457 10.0096 0.870605 9.5946 1.28467C9.16736 1.7041 8.82825 2.20459 8.59717 2.75659C8.36621 3.30884 8.24792 3.90186 8.24927 4.50049L8.24927 5.07129C4.47485 4.07568 1.3877 1.00537 1.35486 0.972656C1.25427 0.871094 1.12671 0.800293 0.987305 0.769043C0.8479 0.737549 0.702393 0.746582 0.567871 0.794922C0.433472 0.843506 0.315674 0.929443 0.228394 1.04248C0.141113 1.15576 0.0878906 1.2915 0.0751953 1.43384C-0.328857 5.91406 0.972412 8.91235 2.1377 10.6382C2.70593 11.4915 3.39709 12.2559 4.18896 12.907C2.76111 14.5503 0.513062 15.4138 0.488647 15.4231C0.382812 15.4629 0.287354 15.5259 0.209229 15.6077C0.131226 15.6895 0.0726318 15.7876 0.0379639 15.8953C0.0032959 16.0027 -0.00671387 16.1167 0.00878906 16.2288C0.0244141 16.3406 0.0650635 16.4475 0.127686 16.5417C0.197998 16.6467 0.479248 17.0151 1.1665 17.3591C2.01587 17.7847 3.13806 18.0005 4.49927 18.0005C11.1246 18.0005 16.6605 12.8984 17.2258 6.33423L20.0299 3.53101C20.1348 3.42603 20.2062 3.29248 20.235 3.14697C20.2639 3.00122 20.2489 2.85059 20.1921 2.71362ZM15.9734 5.4707C15.8447 5.59961 15.7675 5.77075 15.7559 5.95264C15.3743 11.8672 10.4318 16.5005 4.49927 16.5005C3.50928 16.5005 2.81177 16.3691 2.32239 16.2117C3.40149 15.6257 4.90613 14.6179 5.87366 13.1667C5.93042 13.0813 5.96912 12.9851 5.9873 12.8843C6.00549 12.7834 6.00281 12.6799 5.97949 12.5801C5.95618 12.4802 5.9126 12.3865 5.85144 12.3042C5.79041 12.2217 5.71301 12.1528 5.62427 12.1016C5.5802 12.0764 1.50769 9.63232 1.49927 3.10156C2.99927 4.32031 5.74146 6.21143 8.87463 6.73828C8.98193 6.75635 9.09204 6.75073 9.19702 6.72217C9.30212 6.69336 9.39966 6.64209 9.48279 6.57202C9.56604 6.50171 9.63306 6.41431 9.67908 6.31543C9.7251 6.2168 9.74902 6.10938 9.74927 6.00049L9.74927 4.50049C9.74841 4.10034 9.82764 3.7041 9.98218 3.33496C10.1367 2.96606 10.3635 2.63159 10.6493 2.35156C10.9232 2.07715 11.2493 1.8606 11.6084 1.71436C11.9674 1.56812 12.3522 1.49536 12.7399 1.50049C13.9268 1.51538 15.0359 2.23901 15.4999 3.30127C15.5583 3.43481 15.6545 3.54834 15.7766 3.62817C15.8987 3.70801 16.0413 3.75049 16.1871 3.75049L17.6871 3.75049L15.9734 5.4707Z" fill="#FFFFFF" fill-opacity="1.000000" fill-rule="nonzero"/>
</svg>
