<svg width="21.000000" height="16.500000" viewBox="0 0 21 16.5" fill="none" xmlns="http://www.w3.org/2000/svg" xmlns:xlink="http://www.w3.org/1999/xlink">
	<desc>
			Created with Pixso.
	</desc>
	<defs/>
	<path id="Vector" d="M13.9163 7.62573L9.41626 4.62573C9.30322 4.55029 9.172 4.50708 9.03625 4.50049C8.90063 4.4939 8.76575 4.52417 8.646 4.58838C8.52625 4.65234 8.42615 4.7478 8.35645 4.86426C8.28674 4.98096 8.24988 5.11426 8.25 5.25L8.25 11.25C8.24988 11.3857 8.28674 11.519 8.35645 11.6357C8.42615 11.7522 8.52625 11.8477 8.646 11.9116C8.76575 11.9758 8.90063 12.0061 9.03625 11.9995C9.172 11.9929 9.30322 11.9497 9.41626 11.8743L13.9163 8.87427C14.0192 8.80591 14.1035 8.71313 14.1619 8.60425C14.2202 8.49512 14.2507 8.37354 14.2507 8.25C14.2507 8.12646 14.2202 8.00488 14.1619 7.89575C14.1035 7.78687 14.0192 7.69409 13.9163 7.62573ZM9.75 9.84839L9.75 6.65625L12.1481 8.25L9.75 9.84839ZM20.4684 2.76758C20.3801 2.42188 20.2108 2.10229 19.9746 1.83496C19.7385 1.56763 19.4421 1.36035 19.11 1.22998C15.8962 -0.0112305 10.7812 0 10.5 0C10.2188 0 5.10376 -0.0112305 1.89001 1.22998C1.55786 1.36035 1.26147 1.56763 1.02539 1.83496C0.789185 2.10229 0.619873 2.42188 0.531616 2.76758C0.288696 3.70312 0 5.41309 0 8.25C0 11.0869 0.288696 12.7969 0.531616 13.7324C0.619751 14.0784 0.78894 14.3982 1.02515 14.6655C1.26135 14.9331 1.55774 15.1406 1.89001 15.271C4.96875 16.4587 9.78748 16.5 10.4381 16.5L10.5619 16.5C11.2125 16.5 16.0341 16.4587 19.11 15.271C19.4423 15.1406 19.7386 14.9331 19.9749 14.6655C20.2111 14.3982 20.3802 14.0784 20.4684 13.7324C20.7113 12.7949 21 11.0869 21 8.25C21 5.41309 20.7113 3.70312 20.4684 2.76758ZM19.0162 13.3613C18.9877 13.4763 18.9323 13.583 18.8545 13.6724C18.7769 13.7617 18.679 13.8315 18.5691 13.876C15.6019 15.0215 10.5553 15.001 10.5066 15.001L10.5 15.001C10.4493 15.001 5.40662 15.0198 2.4375 13.876C2.32764 13.8315 2.22974 13.7617 2.1521 13.6724C2.07434 13.583 2.01892 13.4763 1.99036 13.3613C1.76245 12.5054 1.5 10.9285 1.5 8.25C1.5 5.57153 1.76245 3.99463 1.98376 3.14355C2.01184 3.02783 2.06702 2.92041 2.14478 2.83032C2.22253 2.73999 2.32056 2.66968 2.43091 2.625C5.29224 1.51978 10.0865 1.5 10.4794 1.5L10.5046 1.5C10.5553 1.5 15.6028 1.48315 18.5671 2.625C18.6771 2.66943 18.7749 2.73901 18.8527 2.82861C18.9304 2.91797 18.9858 3.02466 19.0144 3.13965C19.2375 3.99463 19.5 5.57153 19.5 8.25C19.5 10.9285 19.2375 12.5054 19.0162 13.3564L19.0162 13.3613Z" fill="#FFFFFF" fill-opacity="1.000000" fill-rule="nonzero"/>
</svg>
