<svg width="39.000000" height="39.000000" viewBox="0 0 39 39" fill="none" xmlns="http://www.w3.org/2000/svg" xmlns:xlink="http://www.w3.org/1999/xlink">
	<desc>
			Created with Pixso.
	</desc>
	<defs/>
	<path id="Vector" d="M19.5 0C15.6433 0 11.8732 1.14368 8.66638 3.28638C5.45959 5.42908 2.96033 8.47449 1.48438 12.0377C0.00842285 15.6008 -0.377686 19.5216 0.374756 23.3042C1.12708 27.0869 2.98425 30.5614 5.71143 33.2886C8.4386 36.0157 11.9131 37.8729 15.6958 38.6254C19.4784 39.3777 23.3992 38.9916 26.9623 37.5156C30.5255 36.0398 33.5709 33.5404 35.7136 30.3336C37.8563 27.1268 39 23.3567 39 19.5C38.9945 14.33 36.9384 9.37317 33.2826 5.71741C29.6268 2.06165 24.67 0.00549316 19.5 0ZM19.5 36C16.2366 36 13.0465 35.0323 10.3331 33.2192C7.61963 31.4062 5.50488 28.8292 4.25598 25.8143C3.0072 22.7993 2.68042 19.4817 3.31702 16.281C3.95374 13.0803 5.52515 10.1403 7.83276 7.83276C10.1403 5.52515 13.0803 3.95374 16.281 3.31702C19.4817 2.68042 22.7993 3.0072 25.8143 4.25598C28.8292 5.50488 31.4062 7.61963 33.2192 10.3331C35.0323 13.0465 36 16.2366 36 19.5C35.995 23.8745 34.2551 28.0685 31.1617 31.1617C28.0685 34.255 23.8745 35.995 19.5 36ZM28.5 19.5C28.5 19.8978 28.3419 20.2793 28.0607 20.5607C27.7794 20.8419 27.3978 21 27 21L15.6206 21L19.0613 24.4387C19.2007 24.5781 19.3112 24.7435 19.3866 24.9257C19.462 25.1078 19.5009 25.3029 19.5009 25.5C19.5009 25.6971 19.462 25.8922 19.3866 26.0743C19.3112 26.2565 19.2007 26.4219 19.0613 26.5613C18.9219 26.7006 18.7565 26.8112 18.5743 26.8866C18.3922 26.962 18.1971 27.0009 18 27.0009C17.8029 27.0009 17.6078 26.962 17.4257 26.8866C17.2435 26.8112 17.0781 26.7006 16.9387 26.5613L10.9387 20.5613C10.7993 20.422 10.6886 20.2565 10.6132 20.0745C10.5377 19.8923 10.4988 19.6971 10.4988 19.5C10.4988 19.3029 10.5377 19.1077 10.6132 18.9255C10.6886 18.7435 10.7993 18.578 10.9387 18.4387L16.9387 12.4387C17.2202 12.1572 17.6019 11.9991 18 11.9991C18.3981 11.9991 18.7798 12.1572 19.0613 12.4387C19.3428 12.7202 19.5009 13.1019 19.5009 13.5C19.5009 13.8981 19.3428 14.2798 19.0613 14.5613L15.6206 18L27 18C27.3978 18 27.7794 18.1581 28.0607 18.4393C28.3419 18.7207 28.5 19.1022 28.5 19.5Z" fill="#449596" fill-opacity="1.000000" fill-rule="nonzero"/>
</svg>
