<svg width="20.252197" height="20.252106" viewBox="0 0 20.2522 20.2521" fill="none" xmlns="http://www.w3.org/2000/svg" xmlns:xlink="http://www.w3.org/1999/xlink">
	<desc>
			Created with Pixso.
	</desc>
	<defs/>
	<path id="Vector" d="M20.0757 4.01906C20.0052 3.93481 19.9172 3.86705 19.8177 3.82056C19.7183 3.77406 19.6097 3.74998 19.5 3.75L4.37622 3.75L3.91785 1.23187C3.85498 0.886246 3.67297 0.573624 3.4032 0.348511C3.13354 0.123383 2.79346 4.57764e-05 2.44214 0L0.75 0C0.551147 0 0.360352 0.07901 0.219727 0.219666C0.0789795 0.360321 0 0.551086 0 0.75C0 0.948914 0.0789795 1.13968 0.219727 1.28033C0.360352 1.42099 0.551147 1.5 0.75 1.5L2.4375 1.5L4.83374 14.6522C4.9043 15.0422 5.07666 15.4067 5.3335 15.7088C4.97913 16.0397 4.72339 16.4623 4.5946 16.9297C4.4657 17.3972 4.46887 17.8912 4.60376 18.3569C4.73853 18.8226 4.99963 19.2419 5.35815 19.5683C5.7168 19.8947 6.15869 20.1154 6.63501 20.2059C7.11133 20.2965 7.60339 20.2533 8.05676 20.0813C8.51001 19.9092 8.90686 19.615 9.20312 19.2312C9.49939 18.8474 9.68359 18.389 9.73523 17.907C9.78699 17.4249 9.7041 16.9379 9.49597 16.5L13.754 16.5C13.5863 16.8513 13.4995 17.2357 13.5 17.625C13.5 18.1442 13.6539 18.6517 13.9424 19.0834C14.2308 19.515 14.6407 19.8515 15.1205 20.0502C15.6001 20.2489 16.1279 20.3008 16.6371 20.1996C17.1464 20.0983 17.614 19.8483 17.9812 19.4812C18.3483 19.114 18.5983 18.6463 18.6996 18.1371C18.8009 17.6279 18.7489 17.1001 18.5502 16.6205C18.3516 16.1408 18.015 15.7308 17.5834 15.4424C17.1517 15.154 16.6442 15 16.125 15L7.04724 15C6.87158 15 6.70154 14.9383 6.56665 14.8257C6.43176 14.7132 6.34082 14.5569 6.30933 14.3841L6.01221 12.75L16.8872 12.75C17.4141 12.7499 17.9243 12.5649 18.3287 12.2272C18.7333 11.8896 19.0065 11.4206 19.1006 10.9022L20.2406 4.63406C20.2599 4.52573 20.2551 4.41446 20.2267 4.30818C20.1981 4.2019 20.1466 4.1032 20.0757 4.01906ZM8.25 17.625C8.25 17.8475 8.18408 18.065 8.06042 18.25C7.93677 18.435 7.76111 18.5792 7.55554 18.6644C7.34998 18.7495 7.12378 18.7718 6.90552 18.7284C6.68726 18.685 6.48682 18.5778 6.32947 18.4205C6.17212 18.2632 6.06506 18.0627 6.02161 17.8445C5.97815 17.6263 6.00049 17.4001 6.08569 17.1945C6.17078 16.9889 6.31494 16.8132 6.5 16.6896C6.68494 16.566 6.90247 16.5 7.125 16.5C7.42334 16.5 7.70947 16.6185 7.92053 16.8295C8.13147 17.0405 8.25 17.3266 8.25 17.625ZM17.25 17.625C17.25 17.8475 17.184 18.065 17.0604 18.25C16.9368 18.435 16.7611 18.5792 16.5555 18.6644C16.35 18.7495 16.1238 18.7718 15.9055 18.7284C15.6873 18.685 15.4868 18.5778 15.3295 18.4205C15.1721 18.2632 15.0651 18.0627 15.0216 17.8445C14.9781 17.6263 15.0005 17.4001 15.0857 17.1945C15.1708 16.9889 15.3149 16.8132 15.5 16.6896C15.6849 16.566 15.9025 16.5 16.125 16.5C16.4233 16.5 16.7095 16.6185 16.9205 16.8295C17.1315 17.0405 17.25 17.3266 17.25 17.625ZM17.625 10.6341C17.5935 10.8073 17.5021 10.964 17.3667 11.0766C17.2312 11.1893 17.0605 11.2506 16.8844 11.25L5.73938 11.25L4.64905 5.25L18.601 5.25L17.625 10.6341Z" fill="#FFFFFF" fill-opacity="1.000000" fill-rule="nonzero"/>
</svg>
