<svg width="19.500000" height="19.500000" viewBox="0 0 19.5 19.5" fill="none" xmlns="http://www.w3.org/2000/svg" xmlns:xlink="http://www.w3.org/1999/xlink">
	<desc>
			Created with Pixso.
	</desc>
	<defs/>
	<path id="Vector" d="M9.75 5.25C8.85999 5.25 7.98999 5.51392 7.24988 6.0083C6.50989 6.50293 5.93311 7.20557 5.59253 8.02783C5.25195 8.8501 5.16284 9.75488 5.33643 10.6279C5.51013 11.5007 5.93872 12.3027 6.56799 12.9319C7.19739 13.5613 7.99915 13.99 8.87207 14.1636C9.745 14.3372 10.6498 14.248 11.472 13.9075C12.2943 13.5669 12.9972 12.99 13.4916 12.25C13.9861 11.51 14.25 10.6401 14.25 9.75C14.2488 8.55688 13.7743 7.41309 12.9307 6.56934C12.0869 5.72583 10.9431 5.25122 9.75 5.25ZM9.75 12.75C9.15662 12.75 8.57666 12.574 8.08325 12.2444C7.58997 11.9148 7.20544 11.4463 6.97839 10.8979C6.75134 10.3499 6.69189 9.74658 6.80762 9.16479C6.92334 8.58276 7.20911 8.04834 7.62866 7.62866C8.04822 7.20923 8.58276 6.92334 9.16467 6.80762C9.7467 6.69189 10.3499 6.75122 10.8981 6.97827C11.4463 7.20532 11.9148 7.58984 12.2444 8.08325C12.5741 8.57666 12.75 9.15674 12.75 9.75C12.75 10.5457 12.434 11.3086 11.8713 11.8713C11.3087 12.4338 10.5457 12.75 9.75 12.75ZM14.25 0L5.25 0C3.85803 0.00146484 2.52356 0.555176 1.53931 1.53931C0.555054 2.52368 0.00146484 3.85815 0 5.25L0 14.25C0.00146484 15.6418 0.555054 16.9763 1.53931 17.9607C2.52356 18.9448 3.85803 19.4985 5.25 19.5L14.25 19.5C15.642 19.4985 16.9764 18.9448 17.9607 17.9607C18.9449 16.9763 19.4985 15.6418 19.5 14.25L19.5 5.25C19.4985 3.85815 18.9449 2.52368 17.9607 1.53931C16.9764 0.555176 15.642 0.00146484 14.25 0ZM18 14.25C18 15.2446 17.6049 16.1985 16.9016 16.9016C16.1984 17.605 15.2445 18 14.25 18L5.25 18C4.25549 18 3.30164 17.605 2.59839 16.9016C1.89514 16.1985 1.5 15.2446 1.5 14.25L1.5 5.25C1.5 4.25537 1.89514 3.30151 2.59839 2.59839C3.30164 1.89502 4.25549 1.5 5.25 1.5L14.25 1.5C15.2445 1.5 16.1984 1.89502 16.9016 2.59839C17.6049 3.30151 18 4.25537 18 5.25L18 14.25ZM15.75 4.875C15.75 5.09741 15.684 5.31494 15.5604 5.5C15.4368 5.68506 15.2611 5.8291 15.0555 5.91431C14.85 5.99951 14.6238 6.02173 14.4055 5.97827C14.1873 5.93506 13.9868 5.82788 13.8295 5.67041C13.6721 5.51318 13.5651 5.31274 13.5216 5.09448C13.4781 4.87622 13.5005 4.65015 13.5857 4.44458C13.6708 4.23901 13.8149 4.06323 14 3.9397C14.1849 3.81592 14.4025 3.75 14.625 3.75C14.9233 3.75 15.2095 3.86841 15.4205 4.07959C15.6315 4.29053 15.75 4.57666 15.75 4.875Z" fill="#FFFFFF" fill-opacity="1.000000" fill-rule="nonzero"/>
</svg>
