<svg width="18.000610" height="15.000854" viewBox="0 0 18.0006 15.0009" fill="none" xmlns="http://www.w3.org/2000/svg" xmlns:xlink="http://www.w3.org/1999/xlink">
	<desc>
			Created with Pixso.
	</desc>
	<defs/>
	<path id="Vector" d="M17.7806 8.03107L11.0306 14.7811C10.8899 14.9218 10.699 15.0009 10.5 15.0009C10.301 15.0009 10.1101 14.9218 9.96936 14.7811C9.82861 14.6403 9.74957 14.4495 9.74957 14.2504C9.74957 14.0514 9.82861 13.8605 9.96936 13.7198L15.4397 8.25043L0.75 8.25043C0.551086 8.25043 0.360352 8.17139 0.219666 8.03076C0.0790405 7.89008 0 7.69934 0 7.50043C0 7.30151 0.0790405 7.11072 0.219666 6.97009C0.360352 6.82941 0.551086 6.75043 0.75 6.75043L15.4397 6.75043L9.96936 1.28107C9.82861 1.14032 9.74957 0.949463 9.74957 0.750427C9.74957 0.551392 9.82861 0.360535 9.96936 0.219788C10.1101 0.0790405 10.301 0 10.5 0C10.699 0 10.8899 0.0790405 11.0306 0.219788L17.7806 6.96979C17.8503 7.03943 17.9057 7.12219 17.9434 7.2132C17.9811 7.30426 18.0006 7.40186 18.0006 7.50043C18.0006 7.599 17.9811 7.69659 17.9434 7.7876C17.9057 7.87866 17.8503 7.96136 17.7806 8.03107Z" fill="#FFFFFF" fill-opacity="1.000000" fill-rule="nonzero"/>
</svg>
